<svg width="105" height="19" viewBox="0 0 105 19" fill="none" xmlns="http://www.w3.org/2000/svg">
<path d="M18.5625 6.29688L13.4297 5.55859L11.1094 0.882812C10.7227 0.0742188 9.52734 0.0390625 9.10547 0.882812L6.82031 5.55859L1.65234 6.29688C0.738281 6.4375 0.386719 7.5625 1.05469 8.23047L4.74609 11.8516L3.86719 16.9492C3.72656 17.8633 4.71094 18.5664 5.51953 18.1445L10.125 15.7188L14.6953 18.1445C15.5039 18.5664 16.4883 17.8633 16.3477 16.9492L15.4688 11.8516L19.1602 8.23047C19.8281 7.5625 19.4766 6.4375 18.5625 6.29688ZM13.6406 11.2539L14.4844 16.1055L10.125 13.8203L5.73047 16.1055L6.57422 11.2539L3.02344 7.80859L7.91016 7.10547L10.125 2.67578L12.3047 7.10547L17.1914 7.80859L13.6406 11.2539ZM39.7125 6.29688L34.5797 5.55859L32.2594 0.882812C31.8727 0.0742188 30.6773 0.0390625 30.2555 0.882812L27.9703 5.55859L22.8023 6.29688C21.8883 6.4375 21.5367 7.5625 22.2047 8.23047L25.8961 11.8516L25.0172 16.9492C24.8766 17.8633 25.8609 18.5664 26.6695 18.1445L31.275 15.7188L35.8453 18.1445C36.6539 18.5664 37.6383 17.8633 37.4977 16.9492L36.6187 11.8516L40.3102 8.23047C40.9781 7.5625 40.6266 6.4375 39.7125 6.29688ZM34.7906 11.2539L35.6344 16.1055L31.275 13.8203L26.8805 16.1055L27.7242 11.2539L24.1734 7.80859L29.0602 7.10547L31.275 2.67578L33.4547 7.10547L38.3414 7.80859L34.7906 11.2539ZM60.8625 6.29688L55.7297 5.55859L53.4094 0.882812C53.0227 0.0742188 51.8273 0.0390625 51.4055 0.882812L49.1203 5.55859L43.9523 6.29688C43.0383 6.4375 42.6867 7.5625 43.3547 8.23047L47.0461 11.8516L46.1672 16.9492C46.0266 17.8633 47.0109 18.5664 47.8195 18.1445L52.425 15.7188L56.9953 18.1445C57.8039 18.5664 58.7883 17.8633 58.6477 16.9492L57.7687 11.8516L61.4602 8.23047C62.1281 7.5625 61.7766 6.4375 60.8625 6.29688ZM55.9406 11.2539L56.7844 16.1055L52.425 13.8203L48.0305 16.1055L48.8742 11.2539L45.3234 7.80859L50.2102 7.10547L52.425 2.67578L54.6047 7.10547L59.4914 7.80859L55.9406 11.2539ZM82.0125 6.29688L76.8797 5.55859L74.5594 0.882812C74.1727 0.0742188 72.9773 0.0390625 72.5555 0.882812L70.2703 5.55859L65.1023 6.29688C64.1883 6.4375 63.8367 7.5625 64.5047 8.23047L68.1961 11.8516L67.3172 16.9492C67.1766 17.8633 68.1609 18.5664 68.9695 18.1445L73.575 15.7188L78.1453 18.1445C78.9539 18.5664 79.9383 17.8633 79.7977 16.9492L78.9188 11.8516L82.6102 8.23047C83.2781 7.5625 82.9266 6.4375 82.0125 6.29688ZM77.0906 11.2539L77.9344 16.1055L73.575 13.8203L69.1805 16.1055L70.0242 11.2539L66.4734 7.80859L71.3602 7.10547L73.575 2.67578L75.7547 7.10547L80.6414 7.80859L77.0906 11.2539ZM103.162 6.29688L98.0297 5.55859L95.7094 0.882812C95.3227 0.0742188 94.1273 0.0390625 93.7055 0.882812L91.4203 5.55859L86.2523 6.29688C85.3383 6.4375 84.9867 7.5625 85.6547 8.23047L89.3461 11.8516L88.4672 16.9492C88.3266 17.8633 89.3109 18.5664 90.1195 18.1445L94.725 15.7188L99.2953 18.1445C100.104 18.5664 101.088 17.8633 100.948 16.9492L100.069 11.8516L103.76 8.23047C104.428 7.5625 104.077 6.4375 103.162 6.29688ZM98.2406 11.2539L99.0844 16.1055L94.725 13.8203L90.3305 16.1055L91.1742 11.2539L87.6234 7.80859L92.5102 7.10547L94.725 2.67578L96.9047 7.10547L101.791 7.80859L98.2406 11.2539Z" fill="#26B478"/>
</svg>
